<?xml version="1.0" encoding="UTF-8"?>
<svg id="Capa_2" data-name="Capa 2" xmlns="http://www.w3.org/2000/svg" viewBox="0 0 964.37 229.74">
  <defs>
    <style>
      .cls-1 {
        fill: #2b3a4f;
      }

      .cls-2 {
        fill: #ed1c62;
      }
    </style>
  </defs>
  <g id="Capa_1-2" data-name="Capa 1">
    <g>
      <g>
        <path class="cls-1" d="M196.92,0c-3.01,0-6,.12-8.95.35H0v229.39h196.92c63.44,0,114.87-51.43,114.87-114.87S260.36,0,196.92,0ZM195.17,166.78h-109.3V63.56h109.3c28.5,0,51.61,23.11,51.61,51.61s-23.11,51.61-51.61,51.61Z"/>
        <path class="cls-2" d="M0,229.74V.49l189.75,112.04c1.97,1.16,1.97,4.01,0,5.17L0,229.74Z"/>
      </g>
      <circle class="cls-2" cx="438.64" cy="114.87" r="114.87"/>
      <g>
        <rect class="cls-2" x="575.48" y="78.71" width="63.07" height="151.02" rx="3" ry="3"/>
        <circle class="cls-2" cx="607.2" cy="31.53" r="31.53"/>
      </g>
      <path class="cls-2" d="M673.69,0h64.8c.96,0,1.87.47,2.43,1.25l84.16,117.91c1.68,2.36,5.4,1.17,5.4-1.73V2.98C830.48,1.33,831.81,0,833.46,0h64.01c1.65,0,2.98,1.33,2.98,2.98v223.12c0,1.65-1.33,2.98-2.98,2.98h-65.46c-.96,0-1.86-.46-2.42-1.25l-83.67-116.98c-1.69-2.36-5.4-1.16-5.4,1.73v113.51c0,1.65-1.33,2.98-2.98,2.98h-63.85c-1.65,0-2.98-1.33-2.98-2.98V2.98C670.71,1.33,672.05,0,673.69,0Z"/>
      <path class="cls-1" d="M924.89.49h36.48c1.66,0,3,1.34,3,3v29.71c0,12.05-2.51,21.57-7.52,28.56-5.01,7-13.57,13.13-25.68,18.41l-7.81-14.63c-.8-1.49-.19-3.34,1.31-4.1,6.06-3.06,10.32-6.11,12.79-9.15,2.07-2.54,3.47-5.43,4.2-8.65.43-1.89-.98-3.71-2.92-3.71h-13.85c-1.66,0-3-1.34-3-3V3.49c0-1.66,1.34-3,3-3Z"/>
    </g>
  </g>
</svg>